<svg xmlns="http://www.w3.org/2000/svg" width="39.113" height="40" viewBox="0 0 39.113 40">
  <g id="calendar_1_" data-name="calendar (1)" transform="translate(-5.411)">
    <g id="Group_82" data-name="Group 82" transform="translate(5.411)">
      <path id="Path_164" data-name="Path 164" d="M122.019,259.149a.907.907,0,0,0-.908-.907h-3.168a.907.907,0,0,0-.907.907v3.168a.908.908,0,0,0,.907.908h3.168a.908.908,0,0,0,.908-.908v-3.168Z" transform="translate(-107.888 -237.081)" fill="#fff"/>
      <path id="Path_165" data-name="Path 165" d="M218.653,259.149a.907.907,0,0,0-.907-.907h-3.169a.907.907,0,0,0-.907.907v3.168a.908.908,0,0,0,.907.908h3.169a.907.907,0,0,0,.907-.908Z" transform="translate(-196.605 -237.081)" fill="#fff"/>
      <path id="Path_166" data-name="Path 166" d="M315.282,259.149a.907.907,0,0,0-.907-.907h-3.168a.907.907,0,0,0-.908.907v3.168a.908.908,0,0,0,.908.908h3.168a.908.908,0,0,0,.907-.908Z" transform="translate(-285.315 -237.081)" fill="#fff"/>
      <path id="Path_167" data-name="Path 167" d="M122.019,355.783a.907.907,0,0,0-.908-.908h-3.168a.907.907,0,0,0-.907.908v3.167a.907.907,0,0,0,.907.907h3.168a.908.908,0,0,0,.908-.907v-3.167Z" transform="translate(-107.888 -325.796)" fill="#fff"/>
      <path id="Path_168" data-name="Path 168" d="M218.653,355.783a.907.907,0,0,0-.907-.908h-3.169a.907.907,0,0,0-.907.908v3.167a.907.907,0,0,0,.907.907h3.169a.907.907,0,0,0,.907-.907Z" transform="translate(-196.605 -325.796)" fill="#fff"/>
      <path id="Path_169" data-name="Path 169" d="M315.282,355.783a.907.907,0,0,0-.907-.908h-3.169a.907.907,0,0,0-.908.908v3.167a.907.907,0,0,0,.908.907h3.169a.907.907,0,0,0,.907-.907v-3.167Z" transform="translate(-285.315 -325.796)" fill="#fff"/>
      <path id="Path_170" data-name="Path 170" d="M41.043,54.159V59a3.952,3.952,0,0,1-3.961,3.949h-2.5A3.972,3.972,0,0,1,30.6,59V54.142H19.337V59a3.972,3.972,0,0,1-3.984,3.949h-2.5A3.952,3.952,0,0,1,8.893,59V54.159a3.6,3.6,0,0,0-3.482,3.583V86.1A3.6,3.6,0,0,0,9,89.706H40.939A3.607,3.607,0,0,0,44.524,86.1V57.742A3.6,3.6,0,0,0,41.043,54.159ZM39.882,84.333a1.55,1.55,0,0,1-1.55,1.55h-26.8a1.55,1.55,0,0,1-1.55-1.55V69.686a1.55,1.55,0,0,1,1.55-1.55h26.8a1.55,1.55,0,0,1,1.55,1.55V84.333Z" transform="translate(-5.411 -49.706)" fill="#fff"/>
      <path id="Path_171" data-name="Path 171" d="M80.908,10.648H83.38A1.358,1.358,0,0,0,84.738,9.29V1.358A1.358,1.358,0,0,0,83.38,0H80.908A1.358,1.358,0,0,0,79.55,1.358V9.29A1.358,1.358,0,0,0,80.908,10.648Z" transform="translate(-73.475)" fill="#fff"/>
      <path id="Path_172" data-name="Path 172" d="M345.816,10.648h2.472a1.358,1.358,0,0,0,1.358-1.358V1.358A1.358,1.358,0,0,0,348.288,0h-2.472a1.358,1.358,0,0,0-1.358,1.358V9.29A1.358,1.358,0,0,0,345.816,10.648Z" transform="translate(-316.676)" fill="#fff"/>
    </g>
  </g>
</svg>
