<svg xmlns="http://www.w3.org/2000/svg" width="170.414" height="163.317" viewBox="0 0 170.414 163.317">
  <path id="Union_1" data-name="Union 1" d="M-9797.057,149.882h-51.868l-13.435,13.435-4.035-4.035,9.4-9.4h-4.527a2.84,2.84,0,0,1-2.018-.837l-19.979-19.979,4.038-4.035,19.143,19.143h64.463a2.84,2.84,0,0,1,2.018.837l14.271,14.271-4.038,4.035Zm-148.8,8.563a51.876,51.876,0,0,1,35.815-14.271,51.879,51.879,0,0,1,35.814,14.271Zm35.815-19.979a58.671,58.671,0,0,0-8.006.614l.652-3.009a150.056,150.056,0,0,1,5-17.585h10.914v-5.708h-8.792a148.106,148.106,0,0,1,8.043-17.123h9.313V89.946h-6a147.262,147.262,0,0,1,29.743-34.815,185.713,185.713,0,0,0-21.51,46.232h-7.946v5.706h6.285c-1.533,5.634-2.819,11.344-3.823,17.125h-11.024V129.9h10.139c-.41,2.869-.774,5.746-1.052,8.643l-.107,1.141A58.422,58.422,0,0,0-9910.042,138.465Zm65.887-92.351,9.786,3.761a20.1,20.1,0,0,1,12.806,18.646V82.839A119.509,119.509,0,0,0-9844.155,46.114Zm-97.282,3.873A8.574,8.574,0,0,1-9950,41.425a8.575,8.575,0,0,1,8.563-8.563,8.358,8.358,0,0,1,4.364,1.249,2.854,2.854,0,0,0,2.77.087,2.856,2.856,0,0,0,1.541-2.3,11.307,11.307,0,0,1,11.3-10.453,11.43,11.43,0,0,1,11.417,11.417,11.547,11.547,0,0,1-.4,2.832,2.848,2.848,0,0,0,.906,2.874,2.844,2.844,0,0,0,2.979.454,5.683,5.683,0,0,1,2.226-.452,5.713,5.713,0,0,1,5.708,5.708,5.713,5.713,0,0,1-5.708,5.708Zm99.492-14.271,14.588-8.106,12.971,8.106Zm-55.281-28.542h14.316a20.1,20.1,0,0,1,18.646,12.808l3.761,9.784A119.594,119.594,0,0,0-9897.227,7.174ZM-9850.105,0-9842,12.97l-8.105,14.586Z" transform="translate(9950.001)" fill="#dcdcdc"/>
</svg>
