<svg id="sick_1_" data-name="sick (1)" xmlns="http://www.w3.org/2000/svg" width="24.4" height="24.4" viewBox="0 0 24.4 24.4">
  <g id="Group_23" data-name="Group 23">
    <path id="Path_62" data-name="Path 62" d="M12.2,0A12.2,12.2,0,1,0,24.4,12.2,12.214,12.214,0,0,0,12.2,0Zm3.035,7.64h3.05a.763.763,0,1,1,0,1.525h-3.05a.763.763,0,1,1,0-1.525Zm-9.15,0h3.05a.763.763,0,1,1,0,1.525H6.085a.763.763,0,1,1,0-1.525Zm12.2,9.15v2.288a.763.763,0,0,1-.763.763H6.847a.763.763,0,0,1-.763-.763V16.79H.9a12.043,12.043,0,0,1-.5-1.525H6.085V12.978a.763.763,0,0,1,.763-.763H17.522a.763.763,0,0,1,.763.763v2.288h5.71a12.043,12.043,0,0,1-.5,1.525Z" fill="#2D506D"/>
  </g>
</svg>
