<svg xmlns="http://www.w3.org/2000/svg" width="33.866" height="39.015" viewBox="0 0 33.866 39.015">
  <g id="Group_236" data-name="Group 236" transform="translate(-1293 -792.236)">
    <g id="medical-certificate" transform="translate(1293 792.236)">
      <path id="Path_86" data-name="Path 86" d="M271.037,8.3h6.225A1.037,1.037,0,0,0,278,6.528L271.771.3A1.037,1.037,0,0,0,270,1.036V7.261A1.037,1.037,0,0,0,271.037,8.3Zm0,0" transform="translate(-251.326 0.001)" fill="#fff"/>
      <path id="Path_87" data-name="Path 87" d="M19.712,10.375A3.116,3.116,0,0,1,16.6,7.262V0H1.037A1.037,1.037,0,0,0,0,1.037V34.375a1.037,1.037,0,0,0,1.037,1.037h24.9a1.037,1.037,0,0,0,1.037-1.037v-24ZM6.778,7.608H7.816V6.571a1.037,1.037,0,1,1,2.075,0V7.608h1.037a1.037,1.037,0,1,1,0,2.075H9.891v1.037a1.037,1.037,0,1,1-2.075,0V9.683H6.778a1.037,1.037,0,1,1,0-2.075ZM12.1,29.81H5.187a1.037,1.037,0,1,1,0-2.075H12.1a1.037,1.037,0,1,1,0,2.075Zm0-4.127H5.187a1.037,1.037,0,1,1,0-2.075H12.1a1.037,1.037,0,1,1,0,2.075Zm0-4.127H5.187a1.037,1.037,0,1,1,0-2.075H12.1a1.037,1.037,0,1,1,0,2.075Zm0-4.2H5.187a1.037,1.037,0,0,1,0-2.075H12.1a1.037,1.037,0,1,1,0,2.075Zm9.683,12.45h-4.15a1.037,1.037,0,0,1,0-2.075h4.15a1.037,1.037,0,1,1,0,2.075Zm0-4.15h-4.15a1.037,1.037,0,1,1,0-2.075h4.15a1.037,1.037,0,1,1,0,2.075Zm0-4.15h-4.15a1.037,1.037,0,0,1,0-2.075h4.15a1.037,1.037,0,0,1,0,2.075Zm0,0" transform="translate(0 0)" fill="#fff"/>
    </g>
    <g id="Group_33" data-name="Group 33" transform="translate(1308.132 812.517)">
      <path id="Path_90" data-name="Path 90" d="M9.367,0A9.367,9.367,0,1,1,0,9.367,9.367,9.367,0,0,1,9.367,0Z" transform="translate(0)" fill="#2d506d"/>
      <path id="Path_91" data-name="Path 91" d="M166.385,190.051a.662.662,0,0,0,0-.939L162.87,185.6a.672.672,0,0,0-.467-.2.651.651,0,0,0-.467.2l-3.515,3.515a.666.666,0,0,0,.467,1.136.648.648,0,0,0,.467-.2l2.384-2.384v7.524a.664.664,0,1,0,1.327,0v-7.524l2.384,2.384A.656.656,0,0,0,166.385,190.051Z" transform="translate(-152.821 -181.077)" fill="#fff"/>
    </g>
  </g>
</svg>
