<svg xmlns="http://www.w3.org/2000/svg" width="78" height="78" viewBox="0 0 78 78">
  <g id="Group_236" data-name="Group 236" transform="translate(-1255 -773)">
    <circle id="Ellipse_47" data-name="Ellipse 47" cx="39" cy="39" r="39" transform="translate(1255 773)" fill="#2d506d"/>
    <path id="Union_1" data-name="Union 1" d="M-7942.886,35.413h-16.076A1.039,1.039,0,0,1-7960,34.374V1.037A1.039,1.039,0,0,1-7958.962,0h15.563V7.262a3.116,3.116,0,0,0,3.112,3.114h7.262V20.61a9.442,9.442,0,0,0-2.475-.33,9.368,9.368,0,0,0-1.674.15,1.036,1.036,0,0,0-1.039-.995h-4.149a1.038,1.038,0,0,0-1.037,1.037,1.038,1.038,0,0,0,1.037,1.037h2.221a9.362,9.362,0,0,0-2.543,2.128,1.037,1.037,0,0,0-.715.973,9.34,9.34,0,0,0-1.469,5.038,9.277,9.277,0,0,0,1.982,5.763l0,0Zm-12.963-6.64a1.038,1.038,0,0,0,1.037,1.037h6.916a1.038,1.038,0,0,0,1.037-1.037,1.038,1.038,0,0,0-1.037-1.037h-6.916A1.038,1.038,0,0,0-7955.849,28.773Zm0-4.127a1.038,1.038,0,0,0,1.037,1.037h6.916a1.038,1.038,0,0,0,1.037-1.037,1.038,1.038,0,0,0-1.037-1.037h-6.916A1.038,1.038,0,0,0-7955.849,24.646Zm0-4.127a1.038,1.038,0,0,0,1.037,1.037h6.916a1.038,1.038,0,0,0,1.037-1.037,1.038,1.038,0,0,0-1.037-1.037h-6.916A1.038,1.038,0,0,0-7955.849,20.518Zm0-4.2a1.038,1.038,0,0,0,1.037,1.037h6.916a1.038,1.038,0,0,0,1.037-1.037,1.038,1.038,0,0,0-1.037-1.037h-6.916A1.038,1.038,0,0,0-7955.849,16.323Zm1.59-7.677a1.039,1.039,0,0,0,1.037,1.037h1.037v1.039a1.039,1.039,0,0,0,1.039,1.037,1.038,1.038,0,0,0,1.037-1.037V9.683h1.037a1.039,1.039,0,0,0,1.039-1.037,1.039,1.039,0,0,0-1.039-1.037h-1.037V6.57a1.038,1.038,0,0,0-1.037-1.037,1.039,1.039,0,0,0-1.039,1.037V7.609h-1.037A1.039,1.039,0,0,0-7954.259,8.646Zm18.309,25.748V26.871l-2.385,2.383a.643.643,0,0,1-.465.2.67.67,0,0,1-.468-.2.66.66,0,0,1,0-.939l3.514-3.514a.655.655,0,0,1,.467-.2.673.673,0,0,1,.468.2l3.516,3.514a.663.663,0,0,1,0,.939.654.654,0,0,1-.935,0l-2.385-2.383v7.523a.659.659,0,0,1-.664.663A.66.66,0,0,1-7935.95,34.394ZM-7940.287,8.3a1.04,1.04,0,0,1-1.039-1.039V1.037a1.031,1.031,0,0,1,.642-.957,1.036,1.036,0,0,1,.4-.08,1.041,1.041,0,0,1,.733.3l6.225,6.225a1.039,1.039,0,0,1,.226,1.131,1.037,1.037,0,0,1-.959.641Z" transform="translate(9240 792.236)" fill="#fff"/>
  </g>
</svg>
