<svg xmlns="http://www.w3.org/2000/svg" width="29.105" height="23.5" viewBox="0 0 29.105 23.5">
  <g id="Group_31" data-name="Group 31" transform="translate(-1499.438 -738.4)">
    <g id="plane" transform="translate(1499.438 738.4)">
      <g id="Group_30" data-name="Group 30" transform="translate(0 0)">
        <path id="Path_76" data-name="Path 76" d="M191.69,167.466l-5.651-.3a.36.36,0,0,0-.19.043l-3.113,1.679a.359.359,0,0,0-.106.545l1.6,1.937a.357.357,0,0,1,.049-.032Z" transform="translate(-173.867 -164.526)" fill="#fff"/>
        <path id="Path_77" data-name="Path 77" d="M28.974,112.6l-.009-.018a1.912,1.912,0,0,0-1.863-.917,7.641,7.641,0,0,0-2.548.565c-3.15,1.255-17.974,9.056-17.974,9.056l-3.55-1.913a.359.359,0,0,0-.337,0l-2.5,1.305a.359.359,0,0,0-.069.59l6.108,5.28a.359.359,0,0,0,.4.047l5.964-3.112.9,6.359a.359.359,0,0,0,.526.266c.634-.341,1.03-.557,1.412-.766s.793-.433,1.445-.783a.359.359,0,0,0,.158-.169l4.245-9.443,4.363-2.278C27.689,115.634,29.634,114.021,28.974,112.6Z" transform="translate(0 -111.667)" fill="#fff"/>
      </g>
    </g>
    <line id="Line_14" data-name="Line 14" x2="21.552" transform="translate(1499.492 760.9)" fill="none" stroke="#fff" stroke-width="2"/>
  </g>
</svg>
